<svg width="334" height="267" viewBox="0 0 334 267" fill="none" xmlns="http://www.w3.org/2000/svg">
<path d="M138.698 267C152.569 267 163.814 264.142 163.814 260.616C163.814 257.091 152.569 254.233 138.698 254.233C124.827 254.233 113.583 257.091 113.583 260.616C113.583 264.142 124.827 267 138.698 267Z" fill="#F2F2F2"/>
<path d="M140.572 196.406C154.443 196.406 165.688 193.548 165.688 190.022C165.688 186.497 154.443 183.639 140.572 183.639C126.701 183.639 115.457 186.497 115.457 190.022C115.457 193.548 126.701 196.406 140.572 196.406Z" fill="#F2F2F2"/>
<path d="M25.1156 199.41C38.9866 199.41 50.2312 196.552 50.2312 193.026C50.2312 189.501 38.9866 186.643 25.1156 186.643C11.2446 186.643 0 189.501 0 193.026C0 196.552 11.2446 199.41 25.1156 199.41Z" fill="#F2F2F2"/>
<path d="M152.051 1.50201H8.47931V6.94678H152.051V1.50201Z" fill="#F5F5F5"/>
<path d="M154.3 0H5.85529V182.493H154.3V0Z" fill="url(#paint0_linear)"/>
<path d="M152.051 6.94678H8.47931V179.489H152.051V6.94678Z" fill="white"/>
<path d="M11.4333 5.63254C12.1579 5.63254 12.7453 5.04412 12.7453 4.31828C12.7453 3.59244 12.1579 3.00403 11.4333 3.00403C10.7087 3.00403 10.1213 3.59244 10.1213 4.31828C10.1213 5.04412 10.7087 5.63254 11.4333 5.63254Z" fill="#EB5757"/>
<path d="M15.0393 5.63254C15.7639 5.63254 16.3513 5.04412 16.3513 4.31828C16.3513 3.59244 15.7639 3.00403 15.0393 3.00403C14.3147 3.00403 13.7273 3.59244 13.7273 4.31828C13.7273 5.04412 14.3147 5.63254 15.0393 5.63254Z" fill="#FFFF00"/>
<path d="M18.6492 5.63254C19.3738 5.63254 19.9612 5.04412 19.9612 4.31828C19.9612 3.59244 19.3738 3.00403 18.6492 3.00403C17.9246 3.00403 17.3372 3.59244 17.3372 4.31828C17.3372 5.04412 17.9246 5.63254 18.6492 5.63254Z" fill="#219653"/>
<g opacity="0.2">
<path opacity="0.2" d="M68.4569 13.5181H12.6028V16.8976H68.4569V13.5181Z" fill="#2F80ED"/>
</g>
<path d="M108.192 27.4116H52.3379V30.7911H108.192V27.4116Z" fill="#F5F5F5"/>
<path opacity="0.5" d="M68.4569 136.307H12.6028V139.686H68.4569V136.307Z" fill="#2F80ED"/>
<path d="M94.697 135.931H75.954V140.062H94.697V135.931Z" fill="url(#paint1_linear)"/>
<path d="M94.697 156.959H75.954V161.09H94.697V156.959Z" fill="url(#paint2_linear)"/>
<path d="M132.933 156.959H114.19V161.09H132.933V156.959Z" fill="url(#paint3_linear)"/>
<path d="M94.3223 136.307H76.7039V139.686H94.3223V136.307Z" fill="#2F80ED"/>
<path d="M94.3223 157.335H76.7039V160.714H94.3223V157.335Z" fill="#2F80ED"/>
<path d="M132.183 157.335H114.565V160.714H132.183V157.335Z" fill="#2F80ED"/>
<path d="M68.4569 146.821H12.6028V150.2H68.4569V146.821Z" fill="#F5F5F5"/>
<path opacity="0.5" d="M132.558 146.821H76.7039V150.2H132.558V146.821Z" fill="#2F80ED"/>
<path d="M132.558 167.849H76.7039V171.228H132.558V167.849Z" fill="#F5F5F5"/>
<path opacity="0.5" d="M68.4569 157.335H12.6028V160.714H68.4569V157.335Z" fill="#2F80ED"/>
<path d="M68.4569 167.849H12.6028V171.228H68.4569V167.849Z" fill="#F5F5F5"/>
<path d="M83.8261 33.0441H52.3379V36.4236H83.8261V33.0441Z" fill="#F5F5F5"/>
<path d="M100.32 33.0441H89.449V36.4236H100.32V33.0441Z" fill="#F5F5F5"/>
<path d="M83.8261 44.3091H52.3379V47.6886H83.8261V44.3091Z" fill="#F5F5F5"/>
<path d="M100.32 44.3091H89.449V47.6886H100.32V44.3091Z" fill="#F5F5F5"/>
<path d="M108.192 38.6766H52.3379V42.0561H108.192V38.6766Z" fill="#F5F5F5"/>
<g opacity="0.2">
<path opacity="0.2" d="M147.177 13.5181H91.3234V16.8976H147.177V13.5181Z" fill="#2F80ED"/>
</g>
<path d="M129.559 27.0361H122.811V31.1666H129.559V27.0361Z" fill="url(#paint4_linear)"/>
<path d="M129.559 32.6686H122.811V36.7991H129.559V32.6686Z" fill="url(#paint5_linear)"/>
<path d="M129.559 38.3011H122.811V42.4316H129.559V38.3011Z" fill="url(#paint6_linear)"/>
<path d="M129.184 27.4116H123.186V30.7911H129.184V27.4116Z" fill="#EB5757"/>
<path d="M129.184 33.0441H123.186V36.4236H129.184V33.0441Z" fill="#F2C94C"/>
<path d="M129.184 38.6766H123.186V42.0561H129.184V38.6766Z" fill="#219653"/>
<path d="M129.559 43.9337H122.811V48.0642H129.559V43.9337Z" fill="url(#paint7_linear)"/>
<path d="M129.184 44.3091H123.186V47.6886H129.184V44.3091Z" fill="#2F80ED"/>
<path d="M149.052 68.3412H11.4782V124.666H149.052V68.3412Z" fill="url(#paint8_linear)"/>
<path opacity="0.5" d="M147.177 69.4677H12.6028V122.789H147.177V69.4677Z" fill="#2F80ED"/>
<path opacity="0.5" d="M16.7262 73.5982H147.177V69.4677H12.6028V122.789H16.7262V73.5982Z" fill="white"/>
<path d="M150.302 64.8026L12.1746 77.3947L17.3387 134.236L155.466 121.644L150.302 64.8026Z" fill="url(#paint9_linear)"/>
<path d="M148.57 66.4642L14.5488 78.6819L19.3732 131.784L153.394 119.566L148.57 66.4642Z" fill="white"/>
<path opacity="0.5" d="M24.5533 122.259L22.2292 92.6811C22.2292 92.6811 34.2247 79.9141 58.4406 89.3767C82.6566 98.8394 94.0748 92.1592 98.0108 85.7682C101.947 79.3772 122.377 72.2501 128.997 82.9406C135.617 93.6312 143.556 81.6114 143.556 81.6114L146.24 111.152L24.5533 122.259Z" fill="#2F80ED"/>
<path d="M36.7475 86.2375L36.9499 88.4831" stroke="#2F80ED" stroke-miterlimit="10"/>
<path d="M37.3436 92.7863L39.4953 116.465" stroke="#2F80ED" stroke-miterlimit="10" stroke-dasharray="11.51 11.51"/>
<path d="M39.6901 118.617L39.8963 120.859" stroke="#2F80ED" stroke-miterlimit="10"/>
<path d="M59.7976 89.9025L60.0038 92.1442" stroke="#2F80ED" stroke-miterlimit="10"/>
<path d="M60.4462 97.0294L62.0018 114.118" stroke="#2F80ED" stroke-miterlimit="10" stroke-dasharray="13.06 13.06"/>
<path d="M62.223 116.559L62.4254 118.805" stroke="#2F80ED" stroke-miterlimit="10"/>
<path d="M83.3163 93.9128L83.5413 96.1546" stroke="#2F80ED" stroke-miterlimit="10"/>
<path d="M83.9048 99.8157L85.1719 112.62" stroke="#2F80ED" stroke-miterlimit="10" stroke-dasharray="9.79 9.79"/>
<path d="M85.3555 114.449L85.5767 116.694" stroke="#2F80ED" stroke-miterlimit="10"/>
<path d="M104.455 80.6726L104.657 82.9181" stroke="#2F80ED" stroke-miterlimit="10"/>
<path d="M105.039 87.135L107.15 110.337" stroke="#2F80ED" stroke-miterlimit="10" stroke-dasharray="11.28 11.28"/>
<path d="M107.341 112.444L107.547 114.689" stroke="#2F80ED" stroke-miterlimit="10"/>
<path d="M119.711 77.5747L119.914 79.8165" stroke="#2F80ED" stroke-miterlimit="10"/>
<path d="M120.319 84.2775L122.549 108.809" stroke="#2F80ED" stroke-miterlimit="10" stroke-dasharray="11.93 11.93"/>
<path d="M122.752 111.039L122.958 113.281" stroke="#2F80ED" stroke-miterlimit="10"/>
<path d="M36.8469 87.963C37.8778 87.869 38.6374 86.9557 38.5436 85.9231C38.4498 84.8904 37.538 84.1295 36.5071 84.2235C35.4763 84.3174 34.7166 85.2307 34.8104 86.2634C34.9043 87.296 35.816 88.057 36.8469 87.963Z" fill="#F2C94C"/>
<path d="M59.7882 91.9058C60.8191 91.8118 61.5787 90.8985 61.4849 89.8659C61.3911 88.8332 60.4793 88.0723 59.4484 88.1663C58.4175 88.2602 57.6579 89.1736 57.7517 90.2062C57.8455 91.2389 58.7573 91.9998 59.7882 91.9058Z" fill="#EB5757"/>
<path d="M83.4809 95.7771C84.5118 95.6831 85.2715 94.7698 85.1776 93.7371C85.0838 92.7045 84.1721 91.9436 83.1412 92.0375C82.1103 92.1315 81.3507 93.0448 81.4445 94.0775C81.5383 95.1101 82.45 95.8711 83.4809 95.7771Z" fill="#219653"/>
<path d="M104.555 83.2983C105.998 83.1667 107.061 81.8881 106.93 80.4424C106.799 78.9967 105.522 77.9313 104.079 78.0629C102.636 78.1945 101.572 79.4731 101.704 80.9188C101.835 82.3646 103.111 83.4299 104.555 83.2983Z" fill="url(#paint10_linear)"/>
<path d="M120.098 80.3748C121.541 80.2432 122.604 78.9646 122.473 77.5189C122.342 76.0731 121.065 75.0078 119.622 75.1394C118.179 75.271 117.115 76.5496 117.246 77.9953C117.378 79.441 118.654 80.5063 120.098 80.3748Z" fill="url(#paint11_linear)"/>
<path d="M104.487 82.5504C105.518 82.4564 106.277 81.5431 106.183 80.5105C106.09 79.4778 105.178 78.7169 104.147 78.8109C103.116 78.9048 102.356 79.8181 102.45 80.8508C102.544 81.8834 103.456 82.6444 104.487 82.5504Z" fill="#2F80ED"/>
<path d="M120.03 79.6269C121.061 79.5329 121.82 78.6196 121.726 77.5869C121.633 76.5543 120.721 75.7934 119.69 75.8873C118.659 75.9813 117.899 76.8946 117.993 77.9273C118.087 78.9599 118.999 79.7209 120.03 79.6269Z" fill="#2F80ED"/>
<path d="M143.786 84.2474C144.817 84.1535 145.577 83.2401 145.483 82.2075C145.389 81.1748 144.477 80.4139 143.446 80.5079C142.415 80.6019 141.656 81.5152 141.75 82.5478C141.843 83.5805 142.755 84.3414 143.786 84.2474Z" fill="#219653"/>
<g opacity="0.2">
<path opacity="0.2" d="M147.417 119.68L147.444 119.765C147.731 119.605 147.417 119.68 147.417 119.68Z" fill="url(#paint12_linear)"/>
</g>
<g opacity="0.2">
<path opacity="0.2" d="M144.313 182.756L150.416 181.769L149.577 178.014V177.961H149.554L145.228 158.06V143.547C145.228 143.362 145.218 143.178 145.198 142.995C151.661 134.411 147.822 120.941 147.447 119.766C147.38 119.8 147.279 119.845 147.136 119.901C147.089 119.376 146.99 118.856 146.84 118.35C146.84 118.35 144.966 117.156 143.942 118.692C143.05 120.033 143.714 120.851 143.897 121.043L143.77 121.084C144.057 121.536 144.258 122.038 144.362 122.564C144.303 122.434 144.235 122.309 144.16 122.188C143.924 122.147 143.785 122.109 143.785 122.109L143.74 122.068L143.612 122.109C144.261 123.059 144.49 124.738 144.46 126.728C144.236 126.417 143.985 126.127 143.71 125.86C142.525 124.727 140.962 124.074 139.324 124.028H139.013C138.843 124.028 138.673 124.039 138.503 124.062H138.376L138.162 124.092L137.918 124.137L137.742 124.174L137.439 124.257L137.326 124.291C137.199 124.332 137.075 124.373 136.951 124.422C136.54 124.623 136.109 124.779 135.665 124.888C135.605 124.888 135.545 124.888 135.482 124.907C134.981 124.942 134.483 124.8 134.076 124.505L133.941 124.4C133.89 124.356 133.841 124.31 133.795 124.261C133.744 124.391 133.722 124.531 133.731 124.67C133.759 125.001 133.917 125.308 134.17 125.523C134.241 125.584 134.319 125.637 134.402 125.68C134.525 125.745 134.661 125.783 134.8 125.793H134.942H134.908C134.822 125.834 134.736 125.872 134.646 125.906H134.627C134.53 125.939 134.436 125.969 134.335 125.996C133.843 126.12 133.33 126.128 132.835 126.018L132.674 125.981C132.595 125.958 132.513 125.936 132.438 125.909C132.463 125.966 132.49 126.021 132.52 126.075L132.55 126.123L132.618 126.228L132.659 126.281L132.734 126.375L132.779 126.424L132.873 126.518L132.91 126.551L133.049 126.668L133.098 126.702L133.199 126.773L133.266 126.814L133.356 126.867L133.431 126.904L133.525 126.946L133.604 126.979L133.709 127.017L133.84 127.055L133.937 127.081H134.031H134.117H134.215H134.59C134.783 127.064 134.973 127.017 135.152 126.942L134.807 127.085L134.635 127.145L134.458 127.209L134.282 127.261L134.102 127.314L133.926 127.359L133.739 127.404L133.566 127.438L133.368 127.471L133.203 127.498L132.989 127.524H132.835H132.592H132.464H132.089C132.296 127.584 132.489 127.687 132.655 127.824C132.763 127.902 132.88 127.965 133.004 128.012C133.059 128.028 133.116 128.041 133.173 128.05H133.221H133.341H133.847H134.012C134.354 128.084 134.685 128.19 134.983 128.361C135.141 128.463 135.282 128.59 135.399 128.737C135.347 128.823 135.294 128.906 135.249 128.996C135.204 129.086 135.171 129.146 135.133 129.225C135.058 129.38 134.992 129.539 134.934 129.702C134.721 130.285 134.612 130.902 134.612 131.523C134.612 131.639 134.612 131.752 134.612 131.865C134.612 131.895 134.612 131.929 134.612 131.959C134.612 132.049 134.622 132.139 134.642 132.229V132.3C134.657 132.41 134.677 132.519 134.702 132.627V132.691C134.722 132.781 134.745 132.87 134.77 132.957L134.792 133.036C134.855 133.249 134.931 133.457 135.021 133.66L135.047 133.72C135.089 133.812 135.133 133.902 135.178 133.99V134.016C135.233 134.116 135.291 134.215 135.351 134.313V134.336C135.406 134.426 135.464 134.513 135.527 134.598L135.549 134.628C135.684 134.814 135.83 134.991 135.988 135.158C136.396 135.589 136.874 135.948 137.401 136.221C137.383 136.301 137.369 136.383 137.36 136.465C137.355 136.55 137.355 136.635 137.36 136.72V138.703C137.247 138.763 137.137 138.827 137.03 138.894C132.333 136.758 125.338 121.621 125.338 121.621H125.169C125.852 121.11 125.169 118.887 125.169 118.887C124.769 118.648 124.321 118.5 123.857 118.452H123.483H123.415H123.366H123.299H123.254L123.179 118.474H123.141L123.029 118.516L122.924 118.564L122.886 118.583L122.815 118.625L122.767 118.854L122.699 118.899L122.658 118.932L122.594 118.985L122.553 119.023L122.489 119.083L122.452 119.124L122.388 119.199L122.358 119.237L122.264 119.364C121.241 120.9 122.264 121.756 122.264 121.756C122.198 122.348 122.167 122.944 122.171 123.54C122.096 134.602 133.915 143.175 134.518 143.603C134.252 144.294 132.056 150.414 134.545 158.056C134.552 158.075 134.562 158.092 134.575 158.108C131.74 160.725 129.637 164.037 128.472 167.717C127.307 171.397 127.121 175.317 127.932 179.092L127.981 179.321H128.09C128.078 179.371 128.065 179.421 128.048 179.471C128.019 179.561 127.983 179.649 127.94 179.734C127.865 179.878 127.773 180.013 127.666 180.135C127.55 180.271 127.415 180.406 127.272 180.545L127.122 180.687C126.526 181.258 125.923 181.814 126.373 182.039H132.824V179.219H132.936C132.936 179.219 132.891 179.133 132.824 178.964V178.934H132.802C132.464 178.063 131.677 175.367 132.936 171.213C134.47 166.088 140.434 163.527 140.434 163.527L140.542 163.902H140.52L145.198 179.298C145.198 179.358 145.198 179.418 145.179 179.482C145.158 179.627 145.124 179.771 145.078 179.91C145.042 180.018 145 180.123 144.951 180.226C144.662 180.823 144.164 181.525 143.946 182.05C143.915 182.122 143.889 182.196 143.867 182.272C143.842 182.357 143.833 182.446 143.841 182.535C143.848 182.591 143.87 182.645 143.905 182.689C143.94 182.733 143.987 182.767 144.04 182.786H144.126L144.306 182.756H144.313ZM142.507 138.924C142.389 138.859 142.264 138.798 142.132 138.74V136.878C142.131 136.735 142.117 136.593 142.091 136.453C142.494 136.26 142.872 136.017 143.215 135.729C142.99 136.878 142.739 137.978 142.51 138.924H142.507Z" fill="url(#paint13_linear)"/>
</g>
<path d="M122.159 123.393C122.159 123.393 121.035 122.447 122.159 120.742C123.284 119.038 125.372 120.367 125.372 120.367C125.372 120.367 126.122 122.826 125.372 123.393C124.622 123.96 122.159 123.393 122.159 123.393Z" fill="#CA7070"/>
<path d="M133.84 186.725H128.633C128.652 186.971 128.618 187.218 128.534 187.449C128.449 187.681 128.315 187.891 128.142 188.066C127.441 188.877 126.032 189.857 126.695 190.191H133.84V186.725Z" fill="#00695C"/>
<path opacity="0.2" d="M128.521 188.066C128.694 187.891 128.828 187.681 128.912 187.449C128.997 187.218 129.031 186.971 129.012 186.725H128.637C128.656 186.971 128.622 187.218 128.538 187.449C128.453 187.681 128.319 187.891 128.146 188.066C127.445 188.877 126.035 189.857 126.699 190.191H127.074C126.41 189.857 127.82 188.881 128.521 188.066Z" fill="white"/>
<path d="M152.38 185.651L147.507 186.444C147.642 187.025 147.563 187.635 147.286 188.164C146.754 189.29 145.558 190.694 146.278 190.999L153.333 189.872L152.38 185.651Z" fill="#00695C"/>
<path d="M150.004 121.084C150.004 121.084 155.578 138.699 146.229 148.451L143.53 146.382C143.53 146.382 149.055 127.156 145.963 122.642C151.421 120.821 150.004 121.084 150.004 121.084Z" fill="#00695C"/>
<path d="M146.15 122.639C146.15 122.639 145.026 121.692 146.15 119.988C147.275 118.283 149.363 119.612 149.363 119.612C149.363 119.612 150.113 122.072 149.363 122.639C148.613 123.206 146.15 122.639 146.15 122.639Z" fill="#CA7070"/>
<path opacity="0.2" d="M147.661 188.167C147.939 187.638 148.018 187.026 147.882 186.444L152.38 185.693V185.633L147.507 186.444C147.642 187.025 147.563 187.635 147.286 188.164C146.754 189.29 145.558 190.694 146.278 190.999L146.574 190.95C146.038 190.574 147.151 189.226 147.661 188.167Z" fill="white"/>
<path d="M144.167 140.144C144.167 138.68 142.983 137.493 141.523 137.493C140.062 137.493 138.878 138.68 138.878 140.144V142.694C138.878 144.158 140.062 145.345 141.523 145.345C142.983 145.345 144.167 144.158 144.167 142.694V140.144Z" fill="#CA7070"/>
<path opacity="0.2" d="M143.909 147.516C143.909 147.516 149.367 128.526 146.394 123.859C146.132 123.81 145.963 123.773 145.963 123.773L145.914 123.728L145.775 123.773C148.868 128.279 143.343 147.512 143.343 147.512L146.042 149.581L146.278 149.325L143.909 147.516Z" fill="white"/>
<path d="M141.618 140.238C144.852 140.238 147.474 137.612 147.474 134.373C147.474 131.134 144.852 128.508 141.618 128.508C138.384 128.508 135.763 131.134 135.763 134.373C135.763 137.612 138.384 140.238 141.618 140.238Z" fill="#CA7070"/>
<path opacity="0.2" d="M139.538 142.698V140.144C139.538 139.958 139.558 139.771 139.598 139.589C138.454 139 137.536 138.052 136.984 136.889C136.432 135.726 136.278 134.413 136.545 133.153C136.812 131.894 137.485 130.757 138.461 129.919C139.437 129.081 140.661 128.587 141.944 128.515H141.615C140.301 128.515 139.026 128.957 137.993 129.77C136.961 130.583 136.231 131.721 135.922 132.999C135.613 134.278 135.742 135.624 136.288 136.82C136.834 138.017 137.766 138.994 138.934 139.596C138.895 139.779 138.874 139.965 138.874 140.152V142.705C138.871 143.082 138.948 143.456 139.102 143.8C139.255 144.144 139.481 144.452 139.763 144.701C140.045 144.95 140.378 145.136 140.738 145.245C141.098 145.354 141.478 145.385 141.851 145.334C141.211 145.251 140.624 144.938 140.198 144.452C139.773 143.967 139.538 143.344 139.538 142.698Z" fill="white"/>
<path d="M147.567 163.606C147.567 163.606 136.273 164.882 135.857 163.606C132.929 154.616 135.857 147.523 135.857 147.523C135.857 145.968 136.474 144.476 137.572 143.376C138.67 142.276 140.159 141.658 141.712 141.658C143.265 141.658 144.754 142.276 145.852 143.376C146.95 144.476 147.567 145.968 147.567 147.523V163.606Z" fill="#00695C"/>
<path d="M147.567 163.606L152.669 187.071H147.567L142.278 169.663C142.278 169.663 135.665 172.501 133.967 178.179C132.269 183.857 133.967 187.071 133.967 187.071H128.487L128.431 186.816C127.529 182.635 127.74 178.29 129.043 174.216C130.346 170.143 132.694 166.484 135.853 163.606" fill="#263238"/>
<path opacity="0.2" d="M136.516 163.606C133.589 154.616 136.516 147.523 136.516 147.523C136.516 146.033 137.082 144.599 138.099 143.511C139.117 142.424 140.509 141.765 141.993 141.669C141.869 141.669 141.742 141.669 141.618 141.669C140.065 141.669 138.576 142.287 137.478 143.387C136.38 144.487 135.763 145.979 135.763 147.534C135.763 147.534 132.835 154.631 135.763 163.617C135.913 164.075 137.457 164.203 139.377 164.184C137.817 164.15 136.636 164 136.516 163.606Z" fill="white"/>
<path d="M135.763 147.425C135.763 147.425 120.652 136.829 122.163 123.393H125.563C125.563 123.393 133.682 141.008 138.886 142.698C144.089 144.388 135.763 147.425 135.763 147.425Z" fill="#00695C"/>
<g opacity="0.2">
<path opacity="0.2" d="M142.376 170.076L147.567 187.165H148.317L143.028 169.756C143.028 169.756 142.784 169.862 142.376 170.076Z" fill="white"/>
<path opacity="0.2" d="M136.61 163.7H135.86C132.701 166.578 130.353 170.237 129.05 174.31C127.748 178.384 127.537 182.728 128.438 186.909L128.494 187.165H129.244L129.188 186.909C128.286 182.728 128.497 178.384 129.8 174.31C131.103 170.237 133.451 166.578 136.61 163.7Z" fill="white"/>
</g>
<path opacity="0.2" d="M122.729 123.585H122.163C120.664 137.02 135.763 147.617 135.763 147.617L136.138 147.474C134.387 146.179 121.316 136.127 122.729 123.585Z" fill="white"/>
<path d="M136.948 131.752C137.274 132.507 137.503 133.301 137.63 134.114C138.005 135.759 138.852 137.4 140.31 138.244C141.118 138.683 142.016 138.929 142.934 138.962C144.328 139.048 145.839 138.778 146.825 137.786C147.439 137.115 147.851 136.283 148.013 135.387C148.308 134.063 148.268 132.687 147.895 131.383C147.523 130.079 146.83 128.889 145.88 127.922C144.906 126.979 143.685 126.331 142.358 126.053C141.032 125.774 139.654 125.877 138.383 126.349C137.929 126.571 137.453 126.745 136.963 126.867C136.587 126.927 136.202 126.896 135.842 126.775C135.481 126.655 135.154 126.449 134.89 126.176C134.829 126.373 134.815 126.582 134.85 126.785C134.885 126.988 134.968 127.181 135.091 127.346C135.214 127.511 135.374 127.645 135.559 127.737C135.743 127.829 135.947 127.875 136.153 127.873C135.72 128.081 135.249 128.202 134.77 128.228C134.29 128.254 133.809 128.184 133.356 128.023C133.613 128.565 134.065 128.99 134.621 129.212C135.177 129.434 135.797 129.437 136.355 129.221C135.294 129.694 134.143 129.93 132.982 129.912C133.225 129.912 133.701 130.363 133.997 130.453C134.369 130.512 134.746 130.538 135.122 130.532C135.507 130.555 135.878 130.681 136.199 130.895C136.52 131.11 136.778 131.405 136.948 131.752Z" fill="#263238"/>
<g opacity="0.2">
<path opacity="0.2" d="M136.168 127.866C135.734 128.076 135.262 128.197 134.781 128.222C135.39 128.254 135.997 128.131 136.546 127.866C136.363 127.867 136.182 127.83 136.013 127.757C135.845 127.684 135.694 127.577 135.569 127.442C135.444 127.308 135.349 127.149 135.289 126.975C135.228 126.802 135.205 126.618 135.219 126.435C135.106 126.356 135.001 126.267 134.905 126.168C134.844 126.365 134.83 126.574 134.865 126.778C134.9 126.981 134.983 127.173 135.106 127.339C135.229 127.504 135.389 127.638 135.574 127.729C135.758 127.821 135.962 127.868 136.168 127.866Z" fill="white"/>
<path opacity="0.2" d="M137.352 126.871C137.843 126.748 138.319 126.575 138.773 126.352C139.49 126.069 140.252 125.915 141.022 125.898C140.126 125.869 139.233 126.023 138.398 126.352C137.944 126.575 137.468 126.748 136.977 126.871C136.91 126.871 136.842 126.871 136.775 126.893C136.968 126.91 137.162 126.903 137.352 126.871Z" fill="white"/>
<path opacity="0.2" d="M134.357 130.457C134.061 130.37 133.585 129.923 133.341 129.916C134.503 129.934 135.654 129.698 136.715 129.225C136.477 129.323 136.223 129.377 135.965 129.383C135.009 129.751 133.991 129.932 132.966 129.916C133.21 129.916 133.686 130.366 133.982 130.457C134.24 130.519 134.505 130.541 134.77 130.52C134.63 130.517 134.491 130.495 134.357 130.457Z" fill="white"/>
<path opacity="0.2" d="M143.32 138.965C142.402 138.933 141.504 138.687 140.696 138.248C139.238 137.396 138.406 135.755 138.016 134.118C137.889 133.305 137.66 132.511 137.334 131.756C137.161 131.407 136.899 131.111 136.574 130.898C136.249 130.684 135.873 130.562 135.486 130.543C135.298 130.529 135.11 130.529 134.923 130.543H135.107C135.495 130.562 135.871 130.684 136.196 130.898C136.52 131.111 136.783 131.407 136.955 131.756C137.281 132.511 137.511 133.305 137.637 134.118C138.012 135.762 138.859 137.403 140.317 138.248C141.125 138.687 142.023 138.933 142.941 138.965C143.159 138.965 143.376 138.965 143.597 138.965H143.32Z" fill="white"/>
<path opacity="0.2" d="M135.729 129.368C135.333 129.339 134.949 129.212 134.614 128.997C134.279 128.783 134.003 128.488 133.81 128.14C133.661 128.108 133.515 128.067 133.371 128.016C133.581 128.454 133.919 128.818 134.34 129.06C134.761 129.301 135.246 129.408 135.729 129.368Z" fill="white"/>
</g>
<path opacity="0.2" d="M122.538 123.393C122.538 123.393 121.413 122.447 122.538 120.742C122.687 120.498 122.892 120.293 123.136 120.144C123.379 119.994 123.655 119.905 123.94 119.882C123.593 119.842 123.241 119.901 122.926 120.053C122.612 120.205 122.347 120.445 122.163 120.742C121.038 122.447 122.163 123.393 122.163 123.393C122.893 123.557 123.638 123.64 124.386 123.641C123.764 123.61 123.146 123.527 122.538 123.393Z" fill="white"/>
<g opacity="0.2">
<path opacity="0.2" d="M13.8581 123.483L13.888 123.382C13.888 123.382 13.5068 123.307 13.8581 123.483Z" fill="url(#paint14_linear)"/>
</g>
<g opacity="0.2">
<path opacity="0.2" d="M49.1817 129.777C49.1455 129.657 49.1004 129.541 49.0467 129.428C49.0467 129.39 49.0092 129.36 48.9905 129.326C48.9565 129.259 48.919 129.194 48.878 129.131L48.803 129.033C48.7643 128.983 48.723 128.934 48.6793 128.887L48.5931 128.801C48.5481 128.759 48.5032 128.722 48.4582 128.688L48.3645 128.62L48.2145 128.53L48.1208 128.481L47.9521 128.41L47.8659 128.376C47.7859 128.349 47.7047 128.326 47.6222 128.309C47.0768 128.205 46.5156 128.221 45.9766 128.354C45.9766 128.354 44.4059 130.674 45.0095 131.508L44.8108 131.448C44.8108 131.448 33.1414 144.493 26.5589 146.915C26.3914 146.8 26.2178 146.692 26.0378 146.592V144.151C26.0433 144.049 26.0433 143.946 26.0378 143.843C26.0265 143.746 26.0103 143.65 25.9891 143.554L26.0378 143.528L26.2327 143.419L26.5139 143.246L26.6938 143.13C26.8288 143.037 26.9537 142.939 27.0687 142.837L27.2149 142.709C27.3048 142.634 27.3911 142.555 27.4735 142.473L27.6235 142.326C27.7284 142.219 27.8284 142.108 27.9234 141.996L28.0283 141.868C28.1183 141.755 28.2045 141.64 28.287 141.523L28.3919 141.365C28.4669 141.25 28.5381 141.132 28.6056 141.012L28.6731 140.896C28.7556 140.742 28.8343 140.58 28.9018 140.415L28.9617 140.268C29.0142 140.136 29.0629 140.002 29.1079 139.867C29.1079 139.818 29.1417 139.773 29.1529 139.724C29.2054 139.547 29.2541 139.371 29.2916 139.187C29.2916 139.149 29.2916 139.116 29.3103 139.078C29.3403 138.925 29.3641 138.77 29.3816 138.612C29.3816 138.56 29.3816 138.507 29.3816 138.455C29.3816 138.263 29.4116 138.079 29.4116 137.873C29.4117 136.412 28.9116 134.995 27.9946 133.859C28.4931 133.078 28.8193 132.616 28.8193 132.616C28.5194 132.409 28.2232 132.221 27.9309 132.037L27.646 131.868C27.451 131.752 27.2711 131.636 27.0612 131.531L26.7351 131.358C26.5589 131.264 26.3864 131.174 26.214 131.091L25.8804 130.937L25.3818 130.719L25.0557 130.588C24.8907 130.524 24.7258 130.464 24.5646 130.408L24.2572 130.303C24.0886 130.25 23.9199 130.201 23.7549 130.156L23.4813 130.081C23.2938 130.036 23.1064 129.998 22.9227 129.961L22.7241 129.92C22.4729 129.875 22.2255 129.841 21.9743 129.818C20.4405 129.654 18.8902 129.892 17.476 130.509C17.551 128.714 17.8509 127.235 18.4806 126.319L18.327 126.266L18.2745 126.319C18.2745 126.319 18.0908 126.36 17.8022 126.412C17.7111 126.558 17.6297 126.71 17.5585 126.867C17.6845 126.232 17.9273 125.626 18.2745 125.079L18.1208 125.027C18.3419 124.798 19.1441 123.81 18.0683 122.192C16.8313 120.337 14.5671 121.779 14.5671 121.779C14.3876 122.391 14.2696 123.02 14.2147 123.656C14.0423 123.585 13.9186 123.532 13.8399 123.491C12.7552 127.325 12.1644 131.282 12.0818 135.267C7.99957 141.072 6.31271 149.641 5.98283 151.488L5.95659 151.635C5.9341 151.77 5.92285 151.841 5.92285 151.841L16.5351 152.089C16.5351 152.127 16.5351 152.161 16.5351 152.198V169.032L8.80927 185.4C8.80927 185.4 11.7482 185.494 16.1715 186.061L14.9495 194.814L14.5409 197.27H21.8956C22.7128 195.632 18.6268 194.814 18.6268 194.814H18.5369L20.13 186.647C20.8348 186.764 21.5595 186.889 22.3042 187.022C23.3961 187.234 24.5028 187.359 25.6142 187.398C26.5344 187.43 27.4556 187.39 28.3694 187.277C28.9092 191.705 28.2008 194.348 28.0658 194.787H28.0246L27.616 197.243H34.9707C35.683 195.816 32.6691 195.009 31.8856 194.829L31.9194 194.588C32.2977 191.827 32.3944 189.034 32.208 186.252C33.1571 185.867 34.0419 185.339 34.832 184.686L34.9332 184.596L34.9632 184.566L29.4865 169.171C30.5099 164.815 26.9487 160.241 28.8493 157.955C30.7498 155.668 29.599 152.75 29.3741 152.251C34.5171 149.998 44.912 144.365 47.8284 134.602C48.0426 133.916 48.2166 133.217 48.3495 132.511C48.3495 132.511 49.8189 131.914 49.1817 129.777Z" fill="url(#paint15_linear)"/>
</g>
<path d="M15.0244 126.341C15.0244 126.341 9.45026 143.956 18.7993 153.708L21.4983 151.639C21.4983 151.639 15.9728 132.413 19.0654 127.899C13.6075 126.078 15.0244 126.341 15.0244 126.341Z" fill="#EB5757"/>
<path d="M18.878 127.896C18.878 127.896 20.0026 126.949 18.878 125.245C17.7534 123.54 15.6654 124.869 15.6654 124.869C15.6654 124.869 14.9157 127.329 15.6654 127.896C16.4151 128.463 18.878 127.896 18.878 127.896Z" fill="#F6B9AD"/>
<path d="M20.8609 147.951C20.8609 149.415 22.045 150.602 23.5056 150.602C24.9662 150.602 26.1502 149.415 26.1502 147.951V145.402C26.1502 143.937 24.9662 142.75 23.5056 142.75C22.045 142.75 20.8609 143.937 20.8609 145.402V147.951Z" fill="#F6B9AD"/>
<path opacity="0.2" d="M21.1196 152.773C21.1196 152.773 15.6617 133.784 18.6343 129.116C18.8967 129.067 19.0654 129.03 19.0654 129.03L19.1141 128.985L19.2528 129.03C16.1603 133.536 21.6857 152.769 21.6857 152.769L18.9867 154.838L18.7505 154.583L21.1196 152.773Z" fill="white"/>
<path d="M23.41 145.495C26.6438 145.495 29.2653 142.869 29.2653 139.63C29.2653 136.391 26.6438 133.765 23.41 133.765C20.1762 133.765 17.5547 136.391 17.5547 139.63C17.5547 142.869 20.1762 145.495 23.41 145.495Z" fill="#F6B9AD"/>
<path opacity="0.2" d="M25.4905 147.955V145.401C25.4902 145.215 25.4701 145.028 25.4305 144.846C26.5739 144.257 27.4924 143.309 28.0441 142.146C28.5958 140.983 28.75 139.67 28.4831 138.41C28.2162 137.151 27.5429 136.014 26.5671 135.176C25.5913 134.338 24.3673 133.844 23.0839 133.772H23.4137C24.7272 133.772 26.0026 134.214 27.035 135.027C28.0675 135.84 28.797 136.978 29.1062 138.256C29.4155 139.535 29.2866 140.881 28.7403 142.077C28.194 143.274 27.2619 144.251 26.094 144.853C26.1336 145.036 26.1537 145.222 26.154 145.409V147.962C26.1574 148.339 26.0798 148.713 25.9265 149.057C25.7731 149.401 25.5477 149.709 25.2653 149.958C24.983 150.207 24.6505 150.393 24.2902 150.502C23.93 150.611 23.5505 150.642 23.1776 150.591C23.817 150.508 24.4043 150.195 24.8299 149.709C25.2555 149.224 25.4903 148.601 25.4905 147.955Z" fill="white"/>
<path d="M17.461 168.863C17.461 168.863 28.7555 170.139 29.1716 168.863C30.5211 164.732 26.9225 160.268 28.7218 158.086C30.5961 155.833 29.1716 152.78 29.1716 152.78C29.1716 151.224 28.5547 149.733 27.4566 148.633C26.3586 147.533 24.8692 146.915 23.3163 146.915C21.7634 146.915 20.2741 147.533 19.176 148.633C18.0779 149.733 17.461 151.224 17.461 152.78V168.863Z" fill="#EB5757"/>
<path opacity="0.2" d="M28.7368 158.086C30.611 155.833 29.1866 152.78 29.1866 152.78C29.1866 151.224 28.5697 149.733 27.4716 148.633C26.3735 147.533 24.8842 146.915 23.3313 146.915C23.2038 146.915 23.0801 146.915 22.9564 146.934C24.4406 147.028 25.8331 147.685 26.8511 148.771C27.869 149.857 28.436 151.29 28.4369 152.78C28.4369 152.78 29.8613 155.833 27.987 158.086C26.1727 160.268 29.7864 164.728 28.4369 168.863C28.3094 169.257 27.1436 169.407 25.5954 169.43C27.5035 169.449 29.0404 169.321 29.1866 168.863C30.5511 164.725 26.9224 160.268 28.7368 158.086Z" fill="white"/>
<path d="M26.7762 168.487C30.8997 174.341 32.7253 183.188 31.5445 191.697L31.5107 191.952H27.9908C27.9908 191.952 29.0816 188.734 27.9908 183.061C27.3222 179.659 25.4208 176.625 22.6528 174.544L19.2566 191.952H15.9803L19.2566 168.487H26.7762Z" fill="#F6B9AD"/>
<path d="M46.6288 134.741C46.6288 134.741 47.9895 134.17 47.4047 132.206C46.8199 130.243 44.4433 130.903 44.4433 130.903C44.4433 130.903 43.0001 133.033 43.5587 133.799C44.1172 134.565 46.6288 134.741 46.6288 134.741Z" fill="#F6B9AD"/>
<path d="M26.5925 153.726C26.5925 153.726 44.1397 148.03 46.625 134.741L43.375 133.742C43.375 133.742 30.4611 148.184 25.0069 148.285C19.5527 148.387 26.5925 153.726 26.5925 153.726Z" fill="#EB5757"/>
<path opacity="0.2" d="M46.029 134.756L46.5725 134.921C44.0872 148.21 26.54 153.907 26.54 153.907L26.2289 153.663C28.3019 152.942 43.7123 147.151 46.029 134.756Z" fill="white"/>
<g opacity="0.2">
<path opacity="0.2" d="M21.8993 174.544L18.5031 191.952H19.2528L22.5516 175.055C22.343 174.874 22.1253 174.703 21.8993 174.544Z" fill="white"/>
<path opacity="0.2" d="M26.7762 168.487H26.0265C30.1499 174.341 31.9755 183.188 30.7947 191.697L30.761 191.952H31.5107L31.5444 191.697C32.7252 183.188 30.9072 174.341 26.7762 168.487Z" fill="white"/>
</g>
<path opacity="0.2" d="M46.2652 134.625C46.2652 134.625 47.6259 134.054 47.0411 132.09C46.9701 131.813 46.8346 131.556 46.6456 131.342C46.4567 131.127 46.2197 130.96 45.954 130.855C46.2979 130.918 46.6167 131.077 46.873 131.316C47.1294 131.554 47.3125 131.86 47.401 132.199C47.9858 134.159 46.625 134.734 46.625 134.734C45.88 134.677 45.1433 134.538 44.4283 134.32C45.0311 134.473 45.6455 134.575 46.2652 134.625Z" fill="white"/>
<path d="M17.461 168.224L10.3387 183.244C14.4924 183.452 18.6262 183.954 22.7091 184.746C30.5811 186.248 34.3297 182.493 34.3297 182.493L29.2504 168.224H17.461Z" fill="#263238"/>
<path d="M19.3502 191.881C19.3502 191.881 23.0988 192.632 22.3491 194.134H15.6016L15.9765 191.881H19.3502Z" fill="#EB5757"/>
<path d="M31.3458 191.881C31.3458 191.881 35.0944 192.632 34.3446 194.134H27.5972L27.972 191.881H31.3458Z" fill="#EB5757"/>
<path d="M28.7218 134.805C28.7218 134.805 19.7251 147.572 23.8486 152.829L7.72961 152.453C7.72961 152.453 12.2279 123.54 28.7218 134.805Z" fill="#FCCC63"/>
<path opacity="0.2" d="M28.7218 134.805C26.3976 133.217 24.3134 132.428 22.4429 132.244C24.0155 132.739 25.5015 133.476 26.8475 134.429C26.8475 134.429 17.8508 147.196 21.9743 152.453L7.78585 152.123C7.74836 152.337 7.72961 152.453 7.72961 152.453L23.8486 152.829C19.7251 147.572 28.7218 134.805 28.7218 134.805Z" fill="white"/>
<path opacity="0.2" d="M29.269 168.224H28.1445L33.2238 182.493C33.2238 182.493 30.8022 184.915 25.7641 185.088C31.5632 185.276 34.3484 182.493 34.3484 182.493L29.269 168.224Z" fill="white"/>
<path opacity="0.2" d="M19.3502 191.881H18.6005C18.6005 191.881 22.3491 192.632 21.5994 194.134H22.3491C23.0988 192.632 19.3502 191.881 19.3502 191.881Z" fill="white"/>
<path opacity="0.2" d="M31.3458 191.881H30.5961C30.5961 191.881 34.3447 192.632 33.5949 194.134H34.3447C35.0944 192.632 31.3458 191.881 31.3458 191.881Z" fill="white"/>
<path d="M331.234 62.964H187.662V68.4088H331.234V62.964Z" fill="#F5F5F5"/>
<path d="M334 61.2255H184.806V247.474H334V61.2255Z" fill="url(#paint16_linear)"/>
<path d="M331.234 68.4088H187.662V240.951H331.234V68.4088Z" fill="white"/>
<path d="M190.991 67.0945C191.716 67.0945 192.303 66.5061 192.303 65.7803C192.303 65.0544 191.716 64.466 190.991 64.466C190.266 64.466 189.679 65.0544 189.679 65.7803C189.679 66.5061 190.266 67.0945 190.991 67.0945Z" fill="#EB5757"/>
<path d="M194.597 67.0945C195.322 67.0945 195.909 66.5061 195.909 65.7803C195.909 65.0544 195.322 64.466 194.597 64.466C193.873 64.466 193.285 65.0544 193.285 65.7803C193.285 66.5061 193.873 67.0945 194.597 67.0945Z" fill="#FFFF00"/>
<path d="M198.207 67.0945C198.932 67.0945 199.519 66.5061 199.519 65.7803C199.519 65.0544 198.932 64.466 198.207 64.466C197.482 64.466 196.895 65.0544 196.895 65.7803C196.895 66.5061 197.482 67.0945 198.207 67.0945Z" fill="#219653"/>
<g opacity="0.2">
<path opacity="0.2" d="M322.612 76.1066H196.659V79.4861H322.612V76.1066Z" fill="#2F80ED"/>
</g>
<path d="M250.264 90.7511H195.909V148.578H250.264V90.7511Z" fill="url(#paint17_linear)"/>
<path d="M249.139 92.6286H197.034V146.701H249.139V92.6286Z" fill="white"/>
<path d="M322.612 119.665H268.257V177.492H322.612V119.665Z" fill="url(#paint18_linear)"/>
<path d="M321.487 121.542H269.382V175.614H321.487V121.542Z" fill="white"/>
<path d="M324.861 191.01H197.034V230.813H324.861V191.01Z" fill="url(#paint19_linear)"/>
<path opacity="0.5" d="M322.612 193.638H199.658V229.311H322.612V193.638Z" fill="#2F80ED"/>
<path opacity="0.5" d="M202.657 197.018H322.612V193.638H199.658V229.311H202.657V197.018Z" fill="white"/>
<path d="M240.506 104.476C236.951 100.336 232.056 97.58 226.677 96.6896C221.299 95.7992 215.779 96.8311 211.083 99.6049C206.387 102.379 202.814 106.718 200.988 111.863C199.163 117.009 199.201 122.634 201.097 127.754C202.992 132.874 206.624 137.164 211.357 139.873C216.091 142.582 221.624 143.539 226.99 142.575C232.356 141.611 237.213 138.788 240.712 134.6C244.21 130.412 246.128 125.126 246.129 119.665C246.136 114.09 244.14 108.698 240.506 104.476ZM231.135 133.566C228.075 135.382 224.503 136.133 220.973 135.703C217.442 135.273 214.153 133.686 211.618 131.189C209.082 128.692 207.441 125.425 206.952 121.896C206.463 118.368 207.152 114.777 208.912 111.682C210.673 108.587 213.405 106.162 216.685 104.784C219.964 103.407 223.606 103.154 227.044 104.066C230.481 104.978 233.522 107.003 235.691 109.825C237.86 112.648 239.036 116.11 239.037 119.672C239.045 122.476 238.322 125.234 236.937 127.671C235.553 130.108 233.557 132.14 231.146 133.566H231.135Z" fill="url(#paint20_linear)"/>
<path d="M234.539 109.624L239.655 105.212C237.582 102.793 235.011 100.853 232.119 99.5235C229.227 98.1941 226.081 97.5073 222.899 97.5101V104.269C225.11 104.269 227.295 104.747 229.304 105.671C231.313 106.595 233.098 107.944 234.539 109.624Z" fill="#EB5757"/>
<path d="M222.899 135.056C220.711 135.058 218.548 134.588 216.556 133.678L213.771 139.84C217.015 141.314 220.566 141.981 224.122 141.785C227.678 141.589 231.135 140.535 234.197 138.714L230.749 132.897C228.375 134.315 225.662 135.061 222.899 135.056Z" fill="#219653"/>
<path d="M245.016 119.661C245.022 114.354 243.119 109.223 239.655 105.208L234.538 109.62C236.008 111.322 237.086 113.325 237.698 115.49C238.309 117.655 238.439 119.928 238.077 122.148C237.716 124.369 236.872 126.482 235.606 128.34C234.339 130.198 232.681 131.755 230.749 132.901L234.197 138.718C237.496 136.754 240.228 133.965 242.124 130.624C244.021 127.282 245.018 123.505 245.016 119.661Z" fill="#F2C94C"/>
<path d="M207.53 119.661C207.53 115.578 209.149 111.662 212.031 108.775C214.914 105.887 218.823 104.265 222.899 104.265V97.5063C217.844 97.5065 212.942 99.241 209.009 102.421C205.076 105.601 202.349 110.035 201.282 114.984C200.214 119.933 200.872 125.099 203.144 129.621C205.417 134.144 209.167 137.751 213.771 139.84L216.556 133.678C213.866 132.458 211.585 130.486 209.984 128C208.383 125.514 207.531 122.619 207.53 119.661Z" fill="#2F80ED"/>
<path d="M316.239 129.428H276.504V136.187H316.239V129.428Z" fill="url(#paint21_linear)"/>
<path d="M315.864 129.803H276.879V135.811H315.864V129.803Z" fill="#2F80ED"/>
<path d="M305.368 139.942H276.879V145.95H305.368V139.942Z" fill="#EB5757"/>
<path d="M296.372 150.08H276.879V156.088H296.372V150.08Z" fill="#219653"/>
<path d="M312.116 160.219H276.879V166.227H312.116V160.219Z" fill="#F2C94C"/>
<path d="M252.888 157.59H197.034V160.97H252.888V157.59Z" fill="#F5F5F5"/>
<path d="M228.522 163.223H197.034V166.602H228.522V163.223Z" fill="#F5F5F5"/>
<path d="M245.016 163.223H234.145V166.602H245.016V163.223Z" fill="#F5F5F5"/>
<path d="M245.016 175.614H234.145V178.994H245.016V175.614Z" fill="#F5F5F5"/>
<path d="M228.522 174.488H197.034V177.867H228.522V174.488Z" fill="#F5F5F5"/>
<path d="M252.888 168.855H197.034V172.235H252.888V168.855Z" fill="#F5F5F5"/>
<path d="M323.362 91.1266H267.507V94.5061H323.362V91.1266Z" fill="#F5F5F5"/>
<path d="M298.996 96.7591H267.507V100.139H298.996V96.7591Z" fill="#F5F5F5"/>
<path d="M315.489 96.7591H304.618V100.139H315.489V96.7591Z" fill="#F5F5F5"/>
<path d="M315.489 109.151H304.618V112.53H315.489V109.151Z" fill="#F5F5F5"/>
<path d="M298.996 108.024H267.507V111.404H298.996V108.024Z" fill="#F5F5F5"/>
<path d="M323.362 102.392H267.507V105.771H323.362V102.392Z" fill="#F5F5F5"/>
<path d="M285.126 262.731C287.403 262.731 289.249 260.881 289.249 258.6C289.249 256.319 287.403 254.47 285.126 254.47C282.848 254.47 281.002 256.319 281.002 258.6C281.002 260.881 282.848 262.731 285.126 262.731Z" fill="url(#paint22_linear)"/>
<path d="M285.126 261.604C286.782 261.604 288.125 260.259 288.125 258.6C288.125 256.941 286.782 255.596 285.126 255.596C283.47 255.596 282.127 256.941 282.127 258.6C282.127 260.259 283.47 261.604 285.126 261.604Z" fill="#EB5757"/>
<path d="M292.248 212.789H163.296V258.225H292.248V212.789Z" fill="url(#paint23_linear)"/>
<path d="M289.999 214.666H167.045V250.339H289.999V214.666Z" fill="white"/>
<path d="M171.168 243.58H285.126" stroke="#2F80ED" stroke-width="3" stroke-miterlimit="10"/>
<path d="M189.162 221.801H172.293V242.453H189.162V221.801Z" fill="url(#paint24_linear)"/>
<path d="M188.224 222.74H173.23V241.89H188.224V222.74Z" fill="#2F80ED"/>
<path d="M282.127 236.445H267.133V242.453H282.127V236.445Z" fill="#219653"/>
<path d="M254.012 228.56H239.018V242.078H254.012V228.56Z" fill="#F2C94C"/>
<path d="M221.025 230.813H206.03V242.078H221.025V230.813Z" fill="#EB5757"/>
<path d="M289.999 250.339H167.045V255.596H289.999V250.339Z" fill="#EB5757"/>
<path d="M172.293 262.731C174.57 262.731 176.417 260.881 176.417 258.6C176.417 256.319 174.57 254.47 172.293 254.47C170.016 254.47 168.17 256.319 168.17 258.6C168.17 260.881 170.016 262.731 172.293 262.731Z" fill="url(#paint25_linear)"/>
<path d="M172.293 261.604C173.949 261.604 175.292 260.259 175.292 258.6C175.292 256.941 173.949 255.596 172.293 255.596C170.637 255.596 169.294 256.941 169.294 258.6C169.294 260.259 170.637 261.604 172.293 261.604Z" fill="#EB5757"/>
<path d="M167.045 216.168H164.046V255.596H167.045V216.168Z" fill="#EB5757"/>
<path opacity="0.2" d="M167.045 216.168H164.046V255.596H167.045V216.168Z" fill="black"/>
<path d="M167.244 220.359C167.244 220.318 167.244 220.28 167.244 220.239C167.244 220.198 167.244 220.115 167.244 220.055C167.244 219.995 167.244 219.976 167.221 219.939C167.199 219.901 167.195 219.826 167.176 219.773C167.157 219.721 167.154 219.702 167.139 219.664C167.124 219.627 167.094 219.559 167.071 219.507L167.026 219.413C166.996 219.36 166.962 219.308 166.929 219.259L166.88 219.188C166.831 219.12 166.778 219.055 166.723 218.992C166.424 218.673 166.069 218.411 165.677 218.219C165.984 217.888 166.213 217.493 166.348 217.062C166.387 216.947 166.417 216.829 166.438 216.709C166.438 216.672 166.438 216.634 166.438 216.6C166.448 216.528 166.454 216.455 166.456 216.383C166.456 216.341 166.456 216.304 166.456 216.262C166.456 216.221 166.456 216.138 166.456 216.078C166.456 216.018 166.456 216 166.434 215.962C166.411 215.924 166.408 215.849 166.389 215.797C166.37 215.744 166.366 215.725 166.351 215.688C166.336 215.65 166.306 215.583 166.284 215.53L166.239 215.436C166.209 215.384 166.175 215.331 166.142 215.282L166.093 215.211C166.044 215.143 165.991 215.078 165.935 215.016C165.561 214.623 165.108 214.316 164.605 214.114C164.605 214.114 162.224 214.997 162.067 215.966C160.32 216.341 150.139 218.463 143.148 218.294L143.095 218.155C143.096 217.022 142.788 215.91 142.204 214.94C141.621 213.969 140.785 213.176 139.785 212.646V210.288C139.79 210.188 139.79 210.088 139.785 209.988C139.775 209.892 139.76 209.797 139.74 209.702L139.785 209.676L139.976 209.571L140.254 209.402L140.43 209.286C140.56 209.195 140.685 209.1 140.805 209L140.947 208.876C141.033 208.801 141.116 208.726 141.198 208.647L141.345 208.505C141.447 208.399 141.544 208.292 141.637 208.182L141.738 208.054C141.826 207.944 141.909 207.831 141.989 207.716L142.091 207.562C142.163 207.449 142.233 207.334 142.3 207.217L142.364 207.104C142.447 206.954 142.522 206.796 142.589 206.638L142.645 206.496C142.698 206.368 142.745 206.243 142.788 206.12L142.833 205.981C142.885 205.808 142.93 205.636 142.968 205.459C142.968 205.425 142.968 205.388 142.986 205.354C143.014 205.204 143.036 205.052 143.054 204.9C143.054 204.847 143.054 204.798 143.054 204.746C143.054 204.558 143.084 204.37 143.084 204.179C143.084 203.112 142.809 202.063 142.285 201.133C142.687 201.036 142.93 200.957 142.9 200.919C142.747 200.713 142.593 200.518 142.432 200.33L142.278 200.153C142.165 200.026 142.057 199.906 141.944 199.778L141.764 199.594C141.652 199.481 141.539 199.376 141.427 199.275L141.251 199.117C141.108 198.997 140.966 198.88 140.823 198.768L140.73 198.693C140.557 198.565 140.385 198.445 140.209 198.317L140.014 198.197C139.901 198.126 139.785 198.058 139.669 197.998L139.437 197.878L139.114 197.724L138.878 197.619C138.766 197.57 138.649 197.529 138.533 197.487L138.319 197.408C138.147 197.352 137.975 197.3 137.802 197.254L137.536 197.194L137.247 197.134L136.959 197.089L136.693 197.059L136.396 197.033H136.141H135.845C135.683 197.033 135.52 197.04 135.358 197.055C131.523 197.371 128.164 200.724 128.164 206.068V210.476H134.162V212.481C133.084 212.979 132.171 213.776 131.531 214.778C130.89 215.779 130.55 216.943 130.549 218.132V235.221L125.458 258.649H125.391L124.39 263.121L131.572 264.285L131.883 264.334C132.633 264.011 131.377 262.498 130.811 261.33C130.753 261.208 130.703 261.083 130.661 260.954C130.582 260.719 130.534 260.474 130.519 260.226L136.037 242.093H136.01L136.141 241.669C136.141 241.669 143.166 244.673 144.973 250.715C146.439 255.596 145.528 258.773 145.131 259.802H145.104V259.862C145.026 260.057 144.969 260.166 144.969 260.166H145.104V263.482H152.699C153.404 263.125 151.908 262.085 151.162 261.229C150.918 260.957 150.747 260.627 150.667 260.271H150.795L150.855 260.001C151.81 255.558 151.59 250.944 150.219 246.612C148.848 242.281 146.371 238.383 143.035 235.304C143.049 235.284 143.06 235.263 143.069 235.24C143.786 233.043 144.228 230.765 144.385 228.459C150.191 229.014 157.917 228.616 163.694 224.133C164.245 223.715 164.772 223.267 165.272 222.789C165.77 222.751 166.644 222.473 167.127 221.061C167.166 220.946 167.196 220.828 167.217 220.708C167.217 220.671 167.217 220.633 167.217 220.599C167.231 220.52 167.24 220.44 167.244 220.359Z" fill="url(#paint26_linear)"/>
<path d="M136.82 226.975C136.82 226.975 154.401 232.574 164.14 223.22L162.074 220.513C162.074 220.513 143.181 224.73 138.679 221.639C134.177 218.549 136.82 226.975 136.82 226.975Z" fill="#2F80ED"/>
<path opacity="0.2" d="M163.645 222.867L163.99 223.318C154.243 232.675 136.67 227.073 136.67 227.073C136.67 227.073 136.625 226.93 136.558 226.697C138.653 227.325 154.558 231.609 163.645 222.867Z" fill="white"/>
<path d="M163.765 223.217C163.765 223.217 165.204 223.543 165.868 221.609C166.531 219.676 164.219 218.823 164.219 218.823C164.219 218.823 161.808 219.713 161.816 220.659C161.823 221.606 163.765 223.217 163.765 223.217Z" fill="#985454"/>
<path opacity="0.2" d="M163.536 222.912C163.536 222.912 164.976 223.239 165.639 221.305C165.742 221.038 165.78 220.751 165.751 220.466C165.722 220.182 165.626 219.908 165.471 219.668C165.714 219.92 165.881 220.236 165.951 220.579C166.022 220.922 165.993 221.278 165.868 221.606C165.204 223.543 163.765 223.213 163.765 223.213C163.193 222.731 162.675 222.189 162.221 221.594C162.622 222.07 163.062 222.51 163.536 222.912Z" fill="white"/>
<path d="M145.146 258.071H150.353C150.333 258.316 150.367 258.563 150.452 258.795C150.537 259.026 150.67 259.236 150.844 259.411C151.545 260.222 152.954 261.202 152.291 261.536H145.146V258.071Z" fill="#2F80ED"/>
<path opacity="0.2" d="M150.465 259.411C150.292 259.236 150.158 259.026 150.073 258.795C149.988 258.563 149.955 258.316 149.974 258.071H150.349C150.329 258.316 150.363 258.563 150.448 258.795C150.533 259.026 150.666 259.236 150.84 259.411C151.541 260.222 152.95 261.202 152.287 261.536H151.912C152.575 261.202 151.166 260.226 150.465 259.411Z" fill="white"/>
<path d="M126.601 256.997L131.474 257.796C131.34 258.378 131.418 258.988 131.696 259.516C132.228 260.643 133.424 262.047 132.704 262.351L125.649 261.225L126.601 256.997Z" fill="#2F80ED"/>
<path opacity="0.2" d="M131.325 259.513C131.047 258.984 130.969 258.374 131.103 257.793L126.586 257.042V256.982L131.46 257.782C131.325 258.363 131.403 258.973 131.681 259.501C132.213 260.628 133.409 262.032 132.689 262.336L132.393 262.288C132.948 261.92 131.834 260.571 131.325 259.513Z" fill="white"/>
<path d="M134.818 214.039C134.818 215.503 136.002 216.69 137.463 216.69C138.923 216.69 140.108 215.503 140.108 214.039V211.49C140.108 210.026 138.923 208.839 137.463 208.839C136.002 208.839 134.818 210.026 134.818 211.49V214.039Z" fill="#985454"/>
<path d="M137.367 211.584C140.601 211.584 143.223 208.958 143.223 205.718C143.223 202.479 140.601 199.853 137.367 199.853C134.134 199.853 131.512 202.479 131.512 205.718C131.512 208.958 134.134 211.584 137.367 211.584Z" fill="#985454"/>
<path opacity="0.2" d="M139.448 214.043V211.49C139.448 211.303 139.427 211.117 139.388 210.934C140.531 210.346 141.45 209.397 142.001 208.234C142.553 207.071 142.707 205.758 142.44 204.499C142.173 203.239 141.5 202.102 140.524 201.264C139.549 200.426 138.325 199.933 137.041 199.86H137.371C138.684 199.86 139.96 200.302 140.992 201.115C142.025 201.929 142.754 203.066 143.063 204.345C143.373 205.623 143.244 206.969 142.698 208.165C142.151 209.362 141.219 210.34 140.051 210.941C140.091 211.124 140.111 211.31 140.111 211.497V214.051C140.115 214.428 140.037 214.801 139.884 215.145C139.73 215.49 139.505 215.797 139.223 216.046C138.94 216.295 138.608 216.481 138.248 216.59C137.887 216.699 137.508 216.73 137.135 216.679C137.774 216.596 138.362 216.283 138.787 215.798C139.213 215.313 139.448 214.689 139.448 214.043Z" fill="white"/>
<path d="M131.418 234.951C131.418 234.951 142.713 236.228 143.129 234.951C146.057 225.961 143.129 218.868 143.129 218.868C143.129 217.313 142.512 215.821 141.414 214.721C140.316 213.621 138.827 213.003 137.274 213.003C135.721 213.003 134.231 213.621 133.133 214.721C132.035 215.821 131.418 217.313 131.418 218.868V234.951Z" fill="#2F80ED"/>
<path d="M131.418 234.951L126.316 258.416H131.418L136.708 241.008C136.708 241.008 143.32 243.847 145.018 249.524C146.716 255.202 145.018 258.416 145.018 258.416H150.506L150.562 258.161C151.464 253.98 151.253 249.635 149.95 245.561C148.648 241.488 146.299 237.829 143.14 234.951" fill="#263238"/>
<path opacity="0.2" d="M142.469 234.951C145.397 225.962 142.469 218.868 142.469 218.868C142.469 217.378 141.903 215.944 140.886 214.857C139.869 213.769 138.477 213.111 136.992 213.014C137.116 213.014 137.244 213.014 137.367 213.014C138.92 213.014 140.41 213.632 141.508 214.732C142.606 215.832 143.223 217.324 143.223 218.88C143.223 218.88 146.15 225.977 143.223 234.962C143.073 235.42 141.528 235.548 139.609 235.529C141.168 235.495 142.342 235.345 142.469 234.951Z" fill="white"/>
<g opacity="0.2">
<path opacity="0.2" d="M136.61 241.421L131.418 258.51H130.669L135.958 241.102C135.958 241.102 136.202 241.207 136.61 241.421Z" fill="white"/>
<path opacity="0.2" d="M142.375 235.045H143.125C146.284 237.923 148.633 241.582 149.935 245.655C151.238 249.729 151.449 254.074 150.547 258.255L150.491 258.51H149.741L149.798 258.255C150.699 254.074 150.488 249.729 149.185 245.655C147.883 241.582 145.534 237.923 142.375 235.045Z" fill="white"/>
</g>
<path d="M136.07 223.22C136.07 223.22 153.651 228.819 163.39 219.465L161.325 216.758C161.325 216.758 142.432 220.975 137.93 217.884C133.428 214.794 136.07 223.22 136.07 223.22Z" fill="#2F80ED"/>
<path opacity="0.2" d="M162.895 219.112L163.24 219.563C153.494 228.92 135.92 223.318 135.92 223.318C135.92 223.318 135.875 223.175 135.808 222.942C137.903 223.57 153.809 227.854 162.895 219.112Z" fill="white"/>
<path d="M163.015 219.462C163.015 219.462 164.455 219.788 165.118 217.854C165.782 215.921 163.469 215.068 163.469 215.068C163.469 215.068 161.058 215.958 161.066 216.904C161.073 217.851 163.015 219.462 163.015 219.462Z" fill="#985454"/>
<path opacity="0.2" d="M162.787 219.157C162.787 219.157 164.226 219.484 164.89 217.55C164.992 217.283 165.031 216.996 165.001 216.711C164.972 216.427 164.876 216.153 164.721 215.913C164.964 216.165 165.131 216.481 165.202 216.824C165.272 217.167 165.243 217.523 165.118 217.851C164.455 219.788 163.015 219.458 163.015 219.458C162.443 218.976 161.925 218.434 161.471 217.839C161.872 218.315 162.312 218.755 162.787 219.157Z" fill="white"/>
<path d="M137.806 203.773L137.431 211.659H129.184V207.472C129.184 199.064 138.057 195.873 143.054 202.628C143.178 202.812 137.806 203.773 137.806 203.773Z" fill="#263238"/>
<path opacity="0.2" d="M135.954 199.019C138.057 199.192 140.22 200.341 141.929 202.65C142.053 202.816 136.681 203.777 136.681 203.777L136.306 211.662H137.431L137.806 203.777C137.806 203.777 143.178 202.816 143.054 202.65C141.041 199.924 138.394 198.835 135.954 199.019Z" fill="white"/>
<defs>
<linearGradient id="paint0_linear" x1="80.0775" y1="182.493" x2="80.0775" y2="0" gradientUnits="userSpaceOnUse">
<stop stop-color="#808080" stop-opacity="0.25"/>
<stop offset="0.54" stop-color="#808080" stop-opacity="0.12"/>
<stop offset="1" stop-color="#808080" stop-opacity="0.1"/>
</linearGradient>
<linearGradient id="paint1_linear" x1="4342.24" y1="1676.61" x2="4342.24" y2="1631.17" gradientUnits="userSpaceOnUse">
<stop stop-color="#808080" stop-opacity="0.25"/>
<stop offset="0.54" stop-color="#808080" stop-opacity="0.12"/>
<stop offset="1" stop-color="#808080" stop-opacity="0.1"/>
</linearGradient>
<linearGradient id="paint2_linear" x1="4342.24" y1="1928.96" x2="4342.24" y2="1883.52" gradientUnits="userSpaceOnUse">
<stop stop-color="#808080" stop-opacity="0.25"/>
<stop offset="0.54" stop-color="#808080" stop-opacity="0.12"/>
<stop offset="1" stop-color="#808080" stop-opacity="0.1"/>
</linearGradient>
<linearGradient id="paint3_linear" x1="6292.26" y1="1928.96" x2="6292.26" y2="1883.52" gradientUnits="userSpaceOnUse">
<stop stop-color="#808080" stop-opacity="0.25"/>
<stop offset="0.54" stop-color="#808080" stop-opacity="0.12"/>
<stop offset="1" stop-color="#808080" stop-opacity="0.1"/>
</linearGradient>
<linearGradient id="paint4_linear" x1="2394.14" y1="369.869" x2="2394.14" y2="324.433" gradientUnits="userSpaceOnUse">
<stop stop-color="#808080" stop-opacity="0.25"/>
<stop offset="0.54" stop-color="#808080" stop-opacity="0.12"/>
<stop offset="1" stop-color="#808080" stop-opacity="0.1"/>
</linearGradient>
<linearGradient id="paint5_linear" x1="2394.14" y1="437.458" x2="2394.14" y2="392.022" gradientUnits="userSpaceOnUse">
<stop stop-color="#808080" stop-opacity="0.25"/>
<stop offset="0.54" stop-color="#808080" stop-opacity="0.12"/>
<stop offset="1" stop-color="#808080" stop-opacity="0.1"/>
</linearGradient>
<linearGradient id="paint6_linear" x1="2394.14" y1="505.049" x2="2394.14" y2="459.614" gradientUnits="userSpaceOnUse">
<stop stop-color="#808080" stop-opacity="0.25"/>
<stop offset="0.54" stop-color="#808080" stop-opacity="0.12"/>
<stop offset="1" stop-color="#808080" stop-opacity="0.1"/>
</linearGradient>
<linearGradient id="paint7_linear" x1="2394.14" y1="572.639" x2="2394.14" y2="527.203" gradientUnits="userSpaceOnUse">
<stop stop-color="#808080" stop-opacity="0.25"/>
<stop offset="0.54" stop-color="#808080" stop-opacity="0.12"/>
<stop offset="1" stop-color="#808080" stop-opacity="0.1"/>
</linearGradient>
<linearGradient id="paint8_linear" x1="29468.7" y1="18768.3" x2="29468.7" y2="10319.5" gradientUnits="userSpaceOnUse">
<stop stop-color="#808080" stop-opacity="0.25"/>
<stop offset="0.54" stop-color="#808080" stop-opacity="0.12"/>
<stop offset="1" stop-color="#808080" stop-opacity="0.1"/>
</linearGradient>
<linearGradient id="paint9_linear" x1="55285" y1="19986.6" x2="54497.4" y2="11346.9" gradientUnits="userSpaceOnUse">
<stop stop-color="#808080" stop-opacity="0.25"/>
<stop offset="0.54" stop-color="#808080" stop-opacity="0.12"/>
<stop offset="1" stop-color="#808080" stop-opacity="0.1"/>
</linearGradient>
<linearGradient id="paint10_linear" x1="2565.13" y1="1547.89" x2="2558.44" y2="1474.6" gradientUnits="userSpaceOnUse">
<stop stop-color="#808080" stop-opacity="0.25"/>
<stop offset="0.54" stop-color="#808080" stop-opacity="0.12"/>
<stop offset="1" stop-color="#808080" stop-opacity="0.1"/>
</linearGradient>
<linearGradient id="paint11_linear" x1="2797.97" y1="1502.61" x2="2791.29" y2="1429.32" gradientUnits="userSpaceOnUse">
<stop stop-color="#808080" stop-opacity="0.25"/>
<stop offset="0.54" stop-color="#808080" stop-opacity="0.12"/>
<stop offset="1" stop-color="#808080" stop-opacity="0.1"/>
</linearGradient>
<linearGradient id="paint12_linear" x1="228.254" y1="162.218" x2="228.254" y2="162.191" gradientUnits="userSpaceOnUse">
<stop stop-color="#808080" stop-opacity="0.25"/>
<stop offset="0.54" stop-color="#808080" stop-opacity="0.12"/>
<stop offset="1" stop-color="#808080" stop-opacity="0.1"/>
</linearGradient>
<linearGradient id="paint13_linear" x1="14929.5" y1="37831" x2="14929.5" y2="26619.4" gradientUnits="userSpaceOnUse">
<stop stop-color="#808080" stop-opacity="0.25"/>
<stop offset="0.54" stop-color="#808080" stop-opacity="0.12"/>
<stop offset="1" stop-color="#808080" stop-opacity="0.1"/>
</linearGradient>
<linearGradient id="paint14_linear" x1="47.8867" y1="172.817" x2="47.8867" y2="172.781" gradientUnits="userSpaceOnUse">
<stop stop-color="#808080" stop-opacity="0.25"/>
<stop offset="0.54" stop-color="#808080" stop-opacity="0.12"/>
<stop offset="1" stop-color="#808080" stop-opacity="0.1"/>
</linearGradient>
<linearGradient id="paint15_linear" x1="9915.45" y1="47243.7" x2="9915.45" y2="31850.9" gradientUnits="userSpaceOnUse">
<stop stop-color="#808080" stop-opacity="0.25"/>
<stop offset="0.54" stop-color="#808080" stop-opacity="0.12"/>
<stop offset="1" stop-color="#808080" stop-opacity="0.1"/>
</linearGradient>
<linearGradient id="paint16_linear" x1="103427" y1="122808" x2="103427" y2="30429" gradientUnits="userSpaceOnUse">
<stop stop-color="#808080" stop-opacity="0.25"/>
<stop offset="0.54" stop-color="#808080" stop-opacity="0.12"/>
<stop offset="1" stop-color="#808080" stop-opacity="0.1"/>
</linearGradient>
<linearGradient id="paint17_linear" x1="32543.4" y1="22971.8" x2="32543.4" y2="14066.4" gradientUnits="userSpaceOnUse">
<stop stop-color="#808080" stop-opacity="0.25"/>
<stop offset="0.54" stop-color="#808080" stop-opacity="0.12"/>
<stop offset="1" stop-color="#808080" stop-opacity="0.1"/>
</linearGradient>
<linearGradient id="paint18_linear" x1="43106.2" y1="27453.4" x2="43106.2" y2="18548" gradientUnits="userSpaceOnUse">
<stop stop-color="#808080" stop-opacity="0.25"/>
<stop offset="0.54" stop-color="#808080" stop-opacity="0.12"/>
<stop offset="1" stop-color="#808080" stop-opacity="0.1"/>
</linearGradient>
<linearGradient id="paint19_linear" x1="89180.1" y1="24657.2" x2="89180.1" y2="20438.1" gradientUnits="userSpaceOnUse">
<stop stop-color="#808080" stop-opacity="0.25"/>
<stop offset="0.54" stop-color="#808080" stop-opacity="0.12"/>
<stop offset="1" stop-color="#808080" stop-opacity="0.1"/>
</linearGradient>
<linearGradient id="paint20_linear" x1="35020.7" y1="22220.4" x2="35020.7" y2="16446.7" gradientUnits="userSpaceOnUse">
<stop stop-color="#808080" stop-opacity="0.25"/>
<stop offset="0.54" stop-color="#808080" stop-opacity="0.12"/>
<stop offset="1" stop-color="#808080" stop-opacity="0.1"/>
</linearGradient>
<linearGradient id="paint21_linear" x1="31691.9" y1="2580.78" x2="31691.9" y2="2459.12" gradientUnits="userSpaceOnUse">
<stop stop-color="#808080" stop-opacity="0.25"/>
<stop offset="0.54" stop-color="#808080" stop-opacity="0.12"/>
<stop offset="1" stop-color="#808080" stop-opacity="0.1"/>
</linearGradient>
<linearGradient id="paint22_linear" x1="6553.77" y1="6034.5" x2="6553.77" y2="5852.75" gradientUnits="userSpaceOnUse">
<stop stop-color="#808080" stop-opacity="0.25"/>
<stop offset="0.54" stop-color="#808080" stop-opacity="0.12"/>
<stop offset="1" stop-color="#808080" stop-opacity="0.1"/>
</linearGradient>
<linearGradient id="paint23_linear" x1="78516.9" y1="31458" x2="78516.9" y2="25960.2" gradientUnits="userSpaceOnUse">
<stop stop-color="#808080" stop-opacity="0.25"/>
<stop offset="0.54" stop-color="#808080" stop-opacity="0.12"/>
<stop offset="1" stop-color="#808080" stop-opacity="0.1"/>
</linearGradient>
<linearGradient id="paint24_linear" x1="8305.03" y1="13556.8" x2="8305.03" y2="12420.9" gradientUnits="userSpaceOnUse">
<stop stop-color="#808080" stop-opacity="0.25"/>
<stop offset="0.54" stop-color="#808080" stop-opacity="0.12"/>
<stop offset="1" stop-color="#808080" stop-opacity="0.1"/>
</linearGradient>
<linearGradient id="paint25_linear" x1="3958.6" y1="6034.5" x2="3958.6" y2="5852.75" gradientUnits="userSpaceOnUse">
<stop stop-color="#808080" stop-opacity="0.25"/>
<stop offset="0.54" stop-color="#808080" stop-opacity="0.12"/>
<stop offset="1" stop-color="#808080" stop-opacity="0.1"/>
</linearGradient>
<linearGradient id="paint26_linear" x1="20966.4" y1="47899.3" x2="25864.6" y2="47899.3" gradientUnits="userSpaceOnUse">
<stop stop-color="#808080" stop-opacity="0.25"/>
<stop offset="0.54" stop-color="#808080" stop-opacity="0.12"/>
<stop offset="1" stop-color="#808080" stop-opacity="0.1"/>
</linearGradient>
</defs>
</svg>
